# xmcd
# 
# Track frame offsets:
#     150
#     20555
#     41043
#     63301
#     82273
#     105791
#     129012
# 
# Disc length: 1992
# 
# Revision: 0
# Processed by: cddbd v1.5.2PL0 Copyright (c) Steve Scherf et al.
# Submitted via: fre:ac v1.0.17
# 
DISCID=4f07c607
DTITLE=Kinki Kids  - M album DISC2
DYEAR=0
DGENRE=
TTITLE0=Rocks
TTITLE1=せつない恋に気づいて
TTITLE2=このまま手をつないで
TTITLE3=雨のMelody
TTITLE4=もう君以外愛せない
TTITLE5=HAKKA CANDY
TTITLE6=Bonnie Butterfly
EXTD=
EXTT0=
EXTT1=
EXTT2=
EXTT3=
EXTT4=
EXTT5=
EXTT6=
PLAYORDER=
